<?xml version="1.0" encoding="UTF-8" standalone="no"?>
<svg width="140px" height="460px" viewBox="0 0 140 460" version="1.1" xmlns="http://www.w3.org/2000/svg" xmlns:xlink="http://www.w3.org/1999/xlink" xmlns:sketch="http://www.bohemiancoding.com/sketch/ns">
    <!-- Generator: Sketch 3.0.4 (8053) - http://www.bohemiancoding.com/sketch -->
    <title>sc_icons</title>
    <desc>Created with Sketch.</desc>
    <defs></defs>
    <g id="Page-1" stroke="none" stroke-width="1" fill="none" fill-rule="evenodd" sketch:type="MSPage">
        <g id="Portrait" sketch:type="MSArtboardGroup" transform="translate(-329.000000, -171.000000)" fill="#FFFFFF">
            <path d="M359,311 C375.568542,311 389,297.568542 389,281 C389,264.431458 375.568542,251 359,251 C342.431458,251 329,264.431458 329,281 C329,297.568542 342.431458,311 359,311 Z M359,310 C375.016258,310 388,297.016258 388,281 C388,264.983742 375.016258,252 359,252 C342.983742,252 330,264.983742 330,281 C330,297.016258 342.983742,310 359,310 Z" id="Oval-1" fill-opacity="0.6" sketch:type="MSShapeGroup"></path>
            <path d="M359,391 C375.568542,391 389,377.568542 389,361 C389,344.431458 375.568542,331 359,331 C342.431458,331 329,344.431458 329,361 C329,377.568542 342.431458,391 359,391 Z M359,390 C375.016258,390 388,377.016258 388,361 C388,344.983742 375.016258,332 359,332 C342.983742,332 330,344.983742 330,361 C330,377.016258 342.983742,390 359,390 Z" id="Oval-2" fill-opacity="0.6" sketch:type="MSShapeGroup"></path>
            <path d="M359,231 C375.568542,231 389,217.568542 389,201 C389,184.431458 375.568542,171 359,171 C342.431458,171 329,184.431458 329,201 C329,217.568542 342.431458,231 359,231 Z M359,230 C375.016258,230 388,217.016258 388,201 C388,184.983742 375.016258,172 359,172 C342.983742,172 330,184.983742 330,201 C330,217.016258 342.983742,230 359,230 Z" id="Oval-3" fill-opacity="0.6" sketch:type="MSShapeGroup"></path>
            <path d="M359,471 C375.568542,471 389,457.568542 389,441 C389,424.431458 375.568542,411 359,411 C342.431458,411 329,424.431458 329,441 C329,457.568542 342.431458,471 359,471 Z M359,470 C375.016258,470 388,457.016258 388,441 C388,424.983742 375.016258,412 359,412 C342.983742,412 330,424.983742 330,441 C330,457.016258 342.983742,470 359,470 Z" id="Oval-4" fill-opacity="0.6" sketch:type="MSShapeGroup"></path>
            <path d="M359,551 C375.568542,551 389,537.568542 389,521 C389,504.431458 375.568542,491 359,491 C342.431458,491 329,504.431458 329,521 C329,537.568542 342.431458,551 359,551 Z M359,550 C375.016258,550 388,537.016258 388,521 C388,504.983742 375.016258,492 359,492 C342.983742,492 330,504.983742 330,521 C330,537.016258 342.983742,550 359,550 Z" id="Oval-5" fill-opacity="0.6" sketch:type="MSShapeGroup"></path>
            <path d="M359,631 C375.568542,631 389,617.568542 389,601 C389,584.431458 375.568542,571 359,571 C342.431458,571 329,584.431458 329,601 C329,617.568542 342.431458,631 359,631 Z M359,630 C375.016258,630 388,617.016258 388,601 C388,584.983742 375.016258,572 359,572 C342.983742,572 330,584.983742 330,601 C330,617.016258 342.983742,630 359,630 Z" id="Oval-6" fill-opacity="0.6" sketch:type="MSShapeGroup"></path>
            <path d="M374.900204,271.165625 C373.791429,271.66875 372.598163,272.008125 371.346122,272.16 C372.62449,271.37875 373.604694,270.14125 374.066939,268.665 C372.871224,269.389375 371.547551,269.915 370.137551,270.19875 C369.009184,268.97125 367.400816,268.20375 365.62102,268.20375 C362.204082,268.20375 359.433673,271.031875 359.433673,274.520625 C359.433673,275.015 359.488163,275.496875 359.594082,275.96 C354.451224,275.69625 349.891224,273.181875 346.839184,269.36 C346.306531,270.2925 346.001633,271.3775 346.001633,272.53625 C346.001633,274.7275 347.093878,276.66125 348.754286,277.79375 C347.740408,277.760625 346.785918,277.47625 345.951429,277.003125 C345.950816,277.029375 345.950816,277.05625 345.950816,277.083125 C345.950816,280.143125 348.083878,282.695625 350.914898,283.276875 C350.395714,283.420625 349.84898,283.498125 349.28449,283.498125 C348.885306,283.498125 348.497755,283.45875 348.12,283.384375 C348.907959,285.89375 351.192857,287.720625 353.900204,287.77125 C351.782449,289.465625 349.114898,290.475625 346.215306,290.475625 C345.716327,290.475625 345.223469,290.445625 344.739184,290.386875 C347.478367,292.18 350.730612,293.225 354.224694,293.225 C365.606939,293.225 371.830408,283.6 371.830408,275.2525 C371.830408,274.97875 371.824898,274.705625 371.813265,274.434375 C373.021837,273.545625 374.071224,272.4325 374.900204,271.165625 L374.900204,271.165625 Z" id="Shape" sketch:type="MSShapeGroup"></path>
            <path d="M359,185 C350.164062,185 343,192.113864 343,200.887888 C343,207.908659 347.584,213.862738 353.942375,215.963135 C354.742188,216.108609 355.034187,215.617915 355.034187,215.198996 C355.034187,214.82079 355.019531,213.567943 355.011719,212.241366 C350.5625,213.201373 349.622063,210.367868 349.622063,210.367868 C348.893562,208.533158 347.845687,208.044419 347.845687,208.044419 C346.391594,207.059184 347.956,207.078579 347.956,207.078579 C349.562437,207.189111 350.408187,208.715465 350.408187,208.715465 C351.835938,211.143644 354.154281,210.441567 355.064437,210.034284 C355.209875,209.01026 355.623938,208.308183 356.080062,207.912538 C352.528313,207.511089 348.792,206.147648 348.792,200.059732 C348.792,198.323918 349.416031,196.908158 350.4375,195.795882 C350.274406,195.392478 349.723625,193.775948 350.595687,191.589253 C350.595687,191.589253 351.9375,191.162577 354.996062,193.218382 C356.271437,192.864442 357.639625,192.689893 358.999969,192.684059 C360.359344,192.689893 361.728469,192.866366 363.005844,193.220306 C366.058594,191.162577 367.402344,191.591177 367.402344,191.591177 C368.277344,193.779827 367.726562,195.394402 367.5625,195.795882 C368.587875,196.908158 369.207031,198.323949 369.207031,200.059732 C369.207031,206.163163 365.464844,207.507179 361.900406,207.900901 C362.476594,208.393519 362.986344,209.359359 362.986344,210.841091 C362.986344,212.964793 362.964844,214.677302 362.964844,215.200951 C362.964844,215.623749 363.255844,216.11829 364.066406,215.963135 C370.419938,213.858859 375,207.90478 375,200.887888 C375,192.113864 367.835938,185 359,185 L359,185 Z" id="Shape" sketch:type="MSShapeGroup"></path>
            <path d="M372.1395,358.0755 L371.9365,357.6555 L371.5965,357.39 C371.153,357.0425 368.909,357.4125 368.3045,356.8635 C367.876,356.469 367.8095,355.758 367.6795,354.798 C367.4395,352.931 367.286,352.835 366.995,352.205 C365.9385,349.961 363.071,348.2735 361.1015,348.039 L355.7655,348.039 C351.568,348.039 348.137,351.4775 348.137,355.6745 L348.137,364.581 C348.137,368.7705 351.568,372.202 355.7655,372.202 L364.5325,372.202 C368.73,372.202 372.14,368.7705 372.1635,364.581 L372.2105,358.412 L372.1395,358.0755 L372.1395,358.0755 Z M355.863,354.2795 L360.0935,354.2795 C360.9,354.2795 361.5545,354.935 361.5545,355.7345 C361.5545,356.5325 360.9,357.1955 360.0935,357.1955 L355.863,357.1955 C355.0555,357.1955 354.4015,356.5325 354.4015,355.7345 C354.4015,354.935 355.0555,354.2795 355.863,354.2795 L355.863,354.2795 Z M364.459,365.9225 L355.863,365.9225 C355.0555,365.9225 354.4015,365.2585 354.4015,364.4695 C354.4015,363.6685 355.0555,363.0165 355.863,363.0165 L364.459,363.0165 C365.2615,363.0165 365.912,363.669 365.912,364.4695 C365.912,365.2585 365.2615,365.9225 364.459,365.9225 L364.459,365.9225 Z" id="Shape" sketch:type="MSShapeGroup"></path>
            <path d="M377.593881,440.046866 C377.319772,439.290819 376.929367,438.632617 376.425336,438.070803 C375.921791,437.509959 375.302678,437.069539 374.569696,436.748329 C373.836472,436.427604 373.011717,436.26712 372.095429,436.26712 C371.362205,436.26712 370.680938,436.382202 370.050414,436.610667 C369.420618,436.83986 368.836224,437.143347 368.297717,437.521127 C367.759453,437.899393 367.254937,438.340299 366.785625,438.844087 C366.315585,439.348361 365.862782,439.86356 365.428189,440.39017 C364.969803,439.840252 364.505104,439.319711 364.036277,438.826606 C363.566237,438.334715 363.062449,437.899393 362.524185,437.521127 C361.985921,437.143104 361.401527,436.83986 360.771488,436.610667 C360.14145,436.382202 359.448529,436.26712 358.69224,436.26712 C357.77571,436.26712 356.950954,436.433674 356.218215,436.765081 C355.484506,437.09746 354.865878,437.544435 354.36209,438.105521 C353.87117,438.652526 353.496303,439.298589 353.233848,440.041039 C353.014366,439.539436 352.734916,439.091004 352.395253,438.6955 C351.941237,438.168161 351.384521,437.747164 350.725105,437.433723 C350.06496,437.120768 349.306001,436.963683 348.448711,436.963683 C347.75579,436.963683 347.13692,437.067111 346.592586,437.272997 C346.048252,437.479368 345.536938,437.821458 345.058643,438.29951 L345.009114,438.249738 L345.702035,434.316307 L352.853397,434.316307 L352.853397,431.4225 L343.178239,431.4225 L341.471186,440.996415 L344.638374,440.996415 C344.985077,440.51812 345.355817,440.167289 345.751564,439.944894 C346.147553,439.722499 346.658868,439.611059 347.28575,439.611059 C347.764045,439.611059 348.184556,439.693607 348.547769,439.858704 C348.910254,440.023558 349.223695,440.253965 349.488093,440.551139 C349.751519,440.848314 349.949393,441.194531 350.081956,441.589792 C350.213548,441.985782 350.279829,442.406779 350.279829,442.851812 C350.279829,443.280821 350.209177,443.697447 350.069331,444.101206 C349.928756,444.505451 349.730882,444.860409 349.475468,445.165352 C349.219568,445.470296 348.906612,445.717213 348.535144,445.907317 C348.164405,446.097178 347.747293,446.19138 347.28575,446.19138 C346.493771,446.19138 345.841881,445.95636 345.331052,445.486563 C344.819738,445.016522 344.522564,444.385513 344.440258,443.594019 L340.92661,443.594019 C340.942634,444.501566 341.12861,445.29743 341.483326,445.98161 C341.837798,446.666034 342.312209,447.239259 342.905829,447.701045 C343.499692,448.162588 344.180231,448.504921 344.947445,448.727073 C345.714174,448.949954 346.518535,449.061151 347.359801,449.061151 C348.233843,449.077661 349.058598,448.933201 349.834068,448.628015 C350.609052,448.323071 351.289833,447.891149 351.875198,447.330305 C352.460564,446.769219 352.926962,446.105433 353.27318,445.338704 C353.282649,445.317581 353.290661,445.295973 353.299887,445.27485 C353.571811,445.97724 353.944735,446.591012 354.4308,447.10791 C354.95741,447.669482 355.587691,448.116215 356.321158,448.447865 C357.054139,448.780487 357.889821,448.946069 358.829901,448.946069 C359.585947,448.946069 360.266972,448.837299 360.874674,448.619517 C361.481162,448.401978 362.043219,448.116458 362.558904,447.760771 C363.074103,447.406056 363.560653,446.994042 364.019282,446.524002 C364.477183,446.054933 364.946981,445.567897 365.428432,445.063138 C365.863025,445.567897 366.321654,446.054933 366.802863,446.524002 C367.284072,446.994042 367.793201,447.406056 368.332679,447.760771 C368.870215,448.116458 369.449753,448.402221 370.068138,448.619517 C370.68628,448.837057 371.350794,448.946069 372.061682,448.946069 C372.977241,448.946069 373.807338,448.780487 374.552701,448.447865 C375.297336,448.116458 375.921791,447.657828 376.425336,447.073434 C376.929124,446.489526 377.319772,445.808501 377.593881,445.028662 C377.868962,444.251007 378.006623,443.41484 378.006623,442.521375 C378.006623,441.626939 377.868962,440.802426 377.593881,440.046866 L377.593881,440.046866 Z M362.438238,443.671226 C362.094933,444.003605 361.728564,444.30175 361.339373,444.564448 C360.94921,444.828603 360.536954,445.045657 360.101632,445.217066 C359.666068,445.389447 359.230747,445.475151 358.796153,445.475151 C357.947847,445.475151 357.283818,445.212211 356.802852,444.685115 C356.321644,444.158019 356.081039,443.482093 356.081039,442.657337 C356.081039,441.901777 356.315574,441.220267 356.785614,440.613293 C357.254926,440.006563 357.890549,439.702833 358.692725,439.702833 C359.127804,439.702833 359.563368,439.800677 359.998932,439.995152 C360.434254,440.189869 360.851851,440.436057 361.253425,440.733717 C361.654028,441.03162 362.037878,441.357686 362.404733,441.712401 C362.770859,442.06833 363.092069,442.394154 363.366179,442.692056 C363.091827,443.013267 362.782027,443.340061 362.438238,443.671226 L362.438238,443.671226 Z M374.088488,444.650881 C373.629616,445.200557 372.977241,445.475394 372.130148,445.475394 C371.649182,445.475394 371.19638,445.395031 370.77247,445.235276 C370.34856,445.075035 369.941887,444.862594 369.552939,444.59941 C369.162776,444.336226 368.796407,444.038566 368.452617,443.706188 C368.10907,443.373809 367.788345,443.035603 367.4902,442.692299 C367.765766,442.394154 368.074594,442.068573 368.418626,441.712644 C368.762416,441.357929 369.122716,441.03162 369.501467,440.73396 C369.87949,440.4363 370.279122,440.190111 370.704246,439.995394 C371.127185,439.80092 371.568576,439.703076 372.026963,439.703076 C372.874055,439.703076 373.544639,439.989567 374.036774,440.562065 C374.529393,441.134562 374.775582,441.822142 374.775582,442.623833 C374.775582,443.42528 374.54736,444.100963 374.088488,444.650881 L374.088488,444.650881 Z" id="Shape" sketch:type="MSShapeGroup"></path>
            <path d="M349.878571,510.717556 C351.468363,510.717556 352.757143,509.470349 352.757143,507.931842 C352.757143,506.393334 351.468363,505.146127 349.878571,505.146127 C348.28878,505.146127 347,506.393334 347,507.931842 C347,509.470349 348.28878,510.717556 349.878571,510.717556 Z M352.571429,531.146127 L347,531.146127 L347,512.574699 L352.571429,512.574699 L352.571429,531.146127 L352.571429,531.146127 Z M373,531.146127 L367.428571,531.146127 L367.428571,521.22527 C367.428571,518.640127 366.507429,517.353127 364.681857,517.353127 C363.235143,517.353127 362.317714,518.073699 361.857143,519.516699 L361.857143,531.146127 L356.285714,531.146127 C356.285714,531.146127 356.36,514.431842 356.285714,512.574699 L360.683429,512.574699 L361.023286,516.288985 L361.138429,516.288985 C362.280571,514.431842 364.106143,513.172699 366.609571,513.172699 C368.513143,513.172699 370.052714,513.701985 371.228286,515.031699 C372.411286,516.36327 373,518.149842 373,520.658842 L373,531.146127 L373,531.146127 Z" id="Oval" sketch:type="MSShapeGroup"></path>
            <path d="M362.463918,601.969072 L372.36351,610.454436 C372.003362,610.790927 371.51899,611 370.98631,611 L347.01369,611 C346.478378,611 345.992474,610.79411 345.632136,610.458169 L355.536082,601.969072 L359,605 L362.463918,601.969072 Z M359,603 L345.63649,591.545564 C345.996638,591.209073 346.48101,591 347.01369,591 L370.98631,591 C371.521622,591 372.007526,591.20589 372.367864,591.541831 L359,603 Z M373,609.371217 L363.334716,601.157715 L373,592.750844 L373,609.371217 L373,609.371217 Z M345,609.371216 L345,592.756304 L354.665284,601.157715 L345,609.371216 L345,609.371216 Z" id="Shape" sketch:type="MSShapeGroup"></path>
            <path d="M439,311 C455.568542,311 469,297.568542 469,281 C469,264.431458 455.568542,251 439,251 C422.431458,251 409,264.431458 409,281 C409,297.568542 422.431458,311 439,311 Z M454.900204,271.165625 C453.791429,271.66875 452.598163,272.008125 451.346122,272.16 C452.62449,271.37875 453.604694,270.14125 454.066939,268.665 C452.871224,269.389375 451.547551,269.915 450.137551,270.19875 C449.009184,268.97125 447.400816,268.20375 445.62102,268.20375 C442.204082,268.20375 439.433673,271.031875 439.433673,274.520625 C439.433673,275.015 439.488163,275.496875 439.594082,275.96 C434.451224,275.69625 429.891224,273.181875 426.839184,269.36 C426.306531,270.2925 426.001633,271.3775 426.001633,272.53625 C426.001633,274.7275 427.093878,276.66125 428.754286,277.79375 C427.740408,277.760625 426.785918,277.47625 425.951429,277.003125 C425.950816,277.029375 425.950816,277.05625 425.950816,277.083125 C425.950816,280.143125 428.083878,282.695625 430.914898,283.276875 C430.395714,283.420625 429.84898,283.498125 429.28449,283.498125 C428.885306,283.498125 428.497755,283.45875 428.12,283.384375 C428.907959,285.89375 431.192857,287.720625 433.900204,287.77125 C431.782449,289.465625 429.114898,290.475625 426.215306,290.475625 C425.716327,290.475625 425.223469,290.445625 424.739184,290.386875 C427.478367,292.18 430.730612,293.225 434.224694,293.225 C445.606939,293.225 451.830408,283.6 451.830408,275.2525 C451.830408,274.97875 451.824898,274.705625 451.813265,274.434375 C453.021837,273.545625 454.071224,272.4325 454.900204,271.165625 Z" id="Oval-13" sketch:type="MSShapeGroup"></path>
            <path d="M439,391 C455.568542,391 469,377.568542 469,361 C469,344.431458 455.568542,331 439,331 C422.431458,331 409,344.431458 409,361 C409,377.568542 422.431458,391 439,391 Z M452.1395,358.0755 L451.9365,357.6555 L451.5965,357.39 C451.153,357.0425 448.909,357.4125 448.3045,356.8635 C447.876,356.469 447.8095,355.758 447.6795,354.798 C447.4395,352.931 447.286,352.835 446.995,352.205 C445.9385,349.961 443.071,348.2735 441.1015,348.039 L435.7655,348.039 C431.568,348.039 428.137,351.4775 428.137,355.6745 L428.137,364.581 C428.137,368.7705 431.568,372.202 435.7655,372.202 L444.5325,372.202 C448.73,372.202 452.14,368.7705 452.1635,364.581 L452.2105,358.412 L452.1395,358.0755 Z M435.863,354.2795 L440.0935,354.2795 C440.9,354.2795 441.5545,354.935 441.5545,355.7345 C441.5545,356.5325 440.9,357.1955 440.0935,357.1955 L435.863,357.1955 C435.0555,357.1955 434.4015,356.5325 434.4015,355.7345 C434.4015,354.935 435.0555,354.2795 435.863,354.2795 Z M444.459,365.9225 L435.863,365.9225 C435.0555,365.9225 434.4015,365.2585 434.4015,364.4695 C434.4015,363.6685 435.0555,363.0165 435.863,363.0165 L444.459,363.0165 C445.2615,363.0165 445.912,363.669 445.912,364.4695 C445.912,365.2585 445.2615,365.9225 444.459,365.9225 Z" id="Oval-12" sketch:type="MSShapeGroup"></path>
            <path d="M439,231 C455.568542,231 469,217.568542 469,201 C469,184.431458 455.568542,171 439,171 C422.431458,171 409,184.431458 409,201 C409,217.568542 422.431458,231 439,231 Z M439,185 C430.164062,185 423,192.113864 423,200.887888 C423,207.908659 427.584,213.862738 433.942375,215.963135 C434.742188,216.108609 435.034188,215.617915 435.034188,215.198996 C435.034188,214.82079 435.019531,213.567943 435.011719,212.241366 C430.5625,213.201373 429.622062,210.367868 429.622062,210.367868 C428.893563,208.533158 427.845687,208.044419 427.845687,208.044419 C426.391594,207.059184 427.956,207.078579 427.956,207.078579 C429.562437,207.189111 430.408187,208.715465 430.408187,208.715465 C431.835938,211.143644 434.154281,210.441567 435.064437,210.034284 C435.209875,209.01026 435.623938,208.308183 436.080062,207.912538 C432.528312,207.511089 428.792,206.147648 428.792,200.059732 C428.792,198.323918 429.416031,196.908158 430.4375,195.795882 C430.274406,195.392478 429.723625,193.775948 430.595687,191.589253 C430.595687,191.589253 431.9375,191.162577 434.996062,193.218382 C436.271437,192.864442 437.639625,192.689893 438.999969,192.684059 C440.359344,192.689893 441.728469,192.866366 443.005844,193.220306 C446.058594,191.162577 447.402344,191.591177 447.402344,191.591177 C448.277344,193.779827 447.726562,195.394402 447.5625,195.795882 C448.587875,196.908158 449.207031,198.323949 449.207031,200.059732 C449.207031,206.163163 445.464844,207.507179 441.900406,207.900901 C442.476594,208.393519 442.986344,209.359359 442.986344,210.841091 C442.986344,212.964793 442.964844,214.677302 442.964844,215.200951 C442.964844,215.623749 443.255844,216.11829 444.066406,215.963135 C450.419938,213.858859 455,207.90478 455,200.887888 C455,192.113864 447.835938,185 439,185 Z" id="Oval-11" sketch:type="MSShapeGroup"></path>
            <path d="M439,471 C455.568542,471 469,457.568542 469,441 C469,424.431458 455.568542,411 439,411 C422.431458,411 409,424.431458 409,441 C409,457.568542 422.431458,471 439,471 Z M457.593881,440.046866 C457.319772,439.290819 456.929367,438.632617 456.425336,438.070803 C455.921791,437.509959 455.302678,437.069539 454.569696,436.748329 C453.836472,436.427604 453.011717,436.26712 452.095429,436.26712 C451.362205,436.26712 450.680938,436.382202 450.050414,436.610667 C449.420618,436.83986 448.836224,437.143347 448.297717,437.521127 C447.759453,437.899393 447.254937,438.340299 446.785625,438.844087 C446.315585,439.348361 445.862782,439.86356 445.428189,440.39017 C444.969803,439.840252 444.505104,439.319711 444.036277,438.826606 C443.566237,438.334715 443.062449,437.899393 442.524185,437.521127 C441.985921,437.143104 441.401527,436.83986 440.771488,436.610667 C440.14145,436.382202 439.448529,436.26712 438.69224,436.26712 C437.77571,436.26712 436.950954,436.433674 436.218215,436.765081 C435.484506,437.09746 434.865878,437.544435 434.36209,438.105521 C433.87117,438.652526 433.496303,439.298589 433.233848,440.041039 C433.014366,439.539436 432.734916,439.091004 432.395253,438.6955 C431.941237,438.168161 431.384521,437.747164 430.725105,437.433723 C430.06496,437.120768 429.306001,436.963683 428.448711,436.963683 C427.75579,436.963683 427.13692,437.067111 426.592586,437.272997 C426.048252,437.479368 425.536938,437.821458 425.058643,438.29951 L425.009114,438.249738 L425.702035,434.316307 L432.853397,434.316307 L432.853397,431.4225 L423.178239,431.4225 L421.471186,440.996415 L424.638374,440.996415 C424.985077,440.51812 425.355817,440.167289 425.751564,439.944894 C426.147553,439.722499 426.658868,439.611059 427.28575,439.611059 C427.764045,439.611059 428.184556,439.693607 428.547769,439.858704 C428.910254,440.023558 429.223695,440.253965 429.488093,440.551139 C429.751519,440.848314 429.949393,441.194531 430.081956,441.589792 C430.213548,441.985782 430.279829,442.406779 430.279829,442.851812 C430.279829,443.280821 430.209177,443.697447 430.069331,444.101206 C429.928756,444.505451 429.730882,444.860409 429.475468,445.165352 C429.219568,445.470296 428.906612,445.717213 428.535144,445.907317 C428.164405,446.097178 427.747293,446.19138 427.28575,446.19138 C426.493771,446.19138 425.841881,445.95636 425.331052,445.486563 C424.819738,445.016522 424.522564,444.385513 424.440258,443.594019 L420.92661,443.594019 C420.942634,444.501566 421.12861,445.29743 421.483326,445.98161 C421.837798,446.666034 422.312209,447.239259 422.905829,447.701045 C423.499692,448.162588 424.180231,448.504921 424.947445,448.727073 C425.714174,448.949954 426.518535,449.061151 427.359801,449.061151 C428.233843,449.077661 429.058598,448.933201 429.834068,448.628015 C430.609052,448.323071 431.289833,447.891149 431.875198,447.330305 C432.460564,446.769219 432.926962,446.105433 433.27318,445.338704 C433.282649,445.317581 433.290661,445.295973 433.299887,445.27485 C433.571811,445.97724 433.944735,446.591012 434.4308,447.10791 C434.95741,447.669482 435.587691,448.116215 436.321158,448.447865 C437.054139,448.780487 437.889821,448.946069 438.829901,448.946069 C439.585947,448.946069 440.266972,448.837299 440.874674,448.619517 C441.481162,448.401978 442.043219,448.116458 442.558904,447.760771 C443.074103,447.406056 443.560653,446.994042 444.019282,446.524002 C444.477183,446.054933 444.946981,445.567897 445.428432,445.063138 C445.863025,445.567897 446.321654,446.054933 446.802863,446.524002 C447.284072,446.994042 447.793201,447.406056 448.332679,447.760771 C448.870215,448.116458 449.449753,448.402221 450.068138,448.619517 C450.68628,448.837057 451.350794,448.946069 452.061682,448.946069 C452.977241,448.946069 453.807338,448.780487 454.552701,448.447865 C455.297336,448.116458 455.921791,447.657828 456.425336,447.073434 C456.929124,446.489526 457.319772,445.808501 457.593881,445.028662 C457.868962,444.251007 458.006623,443.41484 458.006623,442.521375 C458.006623,441.626939 457.868962,440.802426 457.593881,440.046866 Z M442.438238,443.671226 C442.094933,444.003605 441.728564,444.30175 441.339373,444.564448 C440.94921,444.828603 440.536954,445.045657 440.101632,445.217066 C439.666068,445.389447 439.230747,445.475151 438.796153,445.475151 C437.947847,445.475151 437.283818,445.212211 436.802852,444.685115 C436.321644,444.158019 436.081039,443.482093 436.081039,442.657337 C436.081039,441.901777 436.315574,441.220267 436.785614,440.613293 C437.254926,440.006563 437.890549,439.702833 438.692725,439.702833 C439.127804,439.702833 439.563368,439.800677 439.998932,439.995152 C440.434254,440.189869 440.851851,440.436057 441.253425,440.733717 C441.654028,441.03162 442.037878,441.357686 442.404733,441.712401 C442.770859,442.06833 443.092069,442.394154 443.366179,442.692056 C443.091827,443.013267 442.782027,443.340061 442.438238,443.671226 Z M454.088488,444.650881 C453.629616,445.200557 452.977241,445.475394 452.130148,445.475394 C451.649182,445.475394 451.19638,445.395031 450.77247,445.235276 C450.34856,445.075035 449.941887,444.862594 449.552939,444.59941 C449.162776,444.336226 448.796407,444.038566 448.452617,443.706188 C448.10907,443.373809 447.788345,443.035603 447.4902,442.692299 C447.765766,442.394154 448.074594,442.068573 448.418626,441.712644 C448.762416,441.357929 449.122716,441.03162 449.501467,440.73396 C449.87949,440.4363 450.279122,440.190111 450.704246,439.995394 C451.127185,439.80092 451.568576,439.703076 452.026963,439.703076 C452.874055,439.703076 453.544639,439.989567 454.036774,440.562065 C454.529393,441.134562 454.775582,441.822142 454.775582,442.623833 C454.775582,443.42528 454.54736,444.100963 454.088488,444.650881 Z" id="Oval-10" sketch:type="MSShapeGroup"></path>
            <path d="M439,551 C455.568542,551 469,537.568542 469,521 C469,504.431458 455.568542,491 439,491 C422.431458,491 409,504.431458 409,521 C409,537.568542 422.431458,551 439,551 Z M429.878571,510.717556 C431.468363,510.717556 432.757143,509.470349 432.757143,507.931842 C432.757143,506.393334 431.468363,505.146127 429.878571,505.146127 C428.28878,505.146127 427,506.393334 427,507.931842 C427,509.470349 428.28878,510.717556 429.878571,510.717556 Z M432.571429,531.146127 L427,531.146127 L427,512.574699 L432.571429,512.574699 L432.571429,531.146127 Z M453,531.146127 L447.428571,531.146127 L447.428571,521.22527 C447.428571,518.640127 446.507429,517.353127 444.681857,517.353127 C443.235143,517.353127 442.317714,518.073699 441.857143,519.516699 L441.857143,531.146127 L436.285714,531.146127 C436.285714,531.146127 436.36,514.431842 436.285714,512.574699 L440.683429,512.574699 L441.023286,516.288985 L441.138429,516.288985 C442.280571,514.431842 444.106143,513.172699 446.609571,513.172699 C448.513143,513.172699 450.052714,513.701985 451.228286,515.031699 C452.411286,516.36327 453,518.149842 453,520.658842 L453,531.146127 Z" id="Oval-9" sketch:type="MSShapeGroup"></path>
            <path d="M439,631 C455.568542,631 469,617.568542 469,601 C469,584.431458 455.568542,571 439,571 C422.431458,571 409,584.431458 409,601 C409,617.568542 422.431458,631 439,631 Z M442.463918,601.969072 L452.36351,610.454436 C452.003362,610.790927 451.51899,611 450.98631,611 L427.01369,611 C426.478378,611 425.992474,610.79411 425.632136,610.458169 L435.536082,601.969072 L439,605 L442.463918,601.969072 Z M439,603 L425.63649,591.545564 C425.996638,591.209073 426.48101,591 427.01369,591 L450.98631,591 C451.521622,591 452.007526,591.20589 452.367864,591.541831 L439,603 Z M453,609.371217 L443.334716,601.157715 L453,592.750844 L453,609.371217 Z M425,609.371216 L425,592.756304 L434.665284,601.157715 L425,609.371216 Z" id="Oval-8" sketch:type="MSShapeGroup"></path>
        </g>
    </g>
</svg>